<?xml version="1.0" encoding="UTF-8"?>
<svg id="Calque_2" data-name="Calque 2" xmlns="http://www.w3.org/2000/svg" viewBox="0 0 315.06 164.94">
  <defs>
    <style>
      .cls-1 {
        stroke: #000;
        stroke-miterlimit: 10;
      }

      .cls-1, .cls-2 {
        fill: #000;
      }

      .cls-2, .cls-3 {
        stroke-width: 0px;
      }

      .cls-3 {
        fill: #fff;
      }
    </style>
  </defs>
  <g id="veectoori">
    <rect class="cls-2" width="315.06" height="164.94"/>
    <path class="cls-3" d="M22.5,20.46c11.59,1.23,14.85-.99,22.04-1.61,2.31-.2,6.05-.47,10.44.27,3.14.53,9.91,1.76,16.04,7.32,5.02,4.56,6.97,9.63,8.02,12.48,1.61,4.35,3.81,10.29,1,13.59-1.72,2.02-4.61,2.23-7.87,2.47-4.54.33-8.2-.74-10.37-1.56,0,0-4.36-1.97-12.22-1.06-7.86.91-10.22,2.36-10.22,2.36-.45.21-1.18.64-1.79,1.44-.94,1.25-.97,2.59-.98,3.35,0,.39,0,2.04,1.04,3.75.52.85,1.1,1.4,1.36,1.64,1,.88,1.99,1.24,2.53,1.42,1.72.6,3.55.64,3.55.64.79.14,1.71.24,2.74.24,1.8.01,3.32-.27,4.48-.58,1.06-.3,2.19-.65,3.36-1.07.97-.35,1.88-.71,2.74-1.08,1.56-.58,3.13-1.17,4.69-1.75.85-.49,5.7-3.16,10.83-1.29,3.09,1.12,5.03,3.43,5.79,4.35,1.79,2.13,2.53,4.16,2.67,4.57,1.29,3.65.68,6.79.45,7.91-.27,1.28-.54,2.59-1.45,4.01-2.09,3.26-5.69,4.24-7.69,4.79-3.08.84-5.59.66-7.7.49-3.5-.29-6.43-1.15-9.87-2.16,0,0-6.17-1.81-8.78-.94-1.07.36-1.71,1.08-1.71,1.08h0c-.48.36-1.11.82-1.6,1.41-.38.45-1.13,1.5-1.31,3.33.24,3.14.62,6.52,1.21,10.1.46,2.77,1,5.39,1.58,7.83.46,3.05.89,6.2,1.27,9.44.45,3.83.82,7.56,1.11,11.17.15,2.32.3,4.64.45,6.97,0,0,.17,3.59-4.05,3.83-4.21.24-9.29.93-11.69-1.3-.67-2.29-1.34-4.59-2-6.9-.38-1.34-.77-2.67-1.15-4-1.72-7.56-3.43-15.12-5.15-22.68l-4.43-17.95c-1.43-5-2.87-10.01-4.3-15.01-.11-.39-.22-.78-.34-1.17-.46-1.59-.65-2.79-.69-3.03-2.43-12.87-3.72-25.94-6.48-38.74-.76-3.52-1.31-5.65-.06-7.35,2.26-3.06,8.12-1.69,14.48-1.02Z"/>
    <path class="cls-3" d="M54.31,89.74c.3-.08.75-.17,1.31-.2,1.74-.07,3.06.6,3.58.85,1.16.55,3.01,1.14,5.92,1.24-.52,1.78-1.01,4.01-1.21,6.61-.14,1.88-.09,3.57.03,5.03.01.78.05,1.93.15,3.31.26,3.72.41,5.88,1.21,8.39.43,1.34,1.19,2.98,2.71,6.26.18.4.69,1.49,1.22,3,.56,1.62.86,2.48.89,3.62.02.75-.05,2.03-.76,3.59-.46.74-1,1.8-1.38,3.17-.33,1.19-.42,2.25-.43,3.05.02.32,0,.77-.27,1.19-.34.56-1.1,1.11-2.74,1.12-3.38.03-5.4.21-5.4.21l-4.16.03s-3.29.41-3.14-3.03c.15-3.43.12-6.35.12-6.35l-.07-3.17c.07-3.38.14-6.76.21-10.15.4-4.8.8-9.6,1.2-14.41.03-1.34-.03-2.97-.33-4.79-.35-2.09-.9-3.86-1.45-5.24.2-.5.55-1.22,1.17-1.95.58-.68,1.18-1.12,1.62-1.39Z"/>
    <path class="cls-3" d="M129.83,72.48c.15,3.38-2.9,8.02-5.6,10.8-.43.44-2.54,2.58-5.94,4.23-2.08,1.01-3.75,1.79-5.52,1.25-1.33-.4-1.39-1.12-3.13-1.82-.48-.19-2.22-.87-4.3-.44-3.03.62-4.62,3.12-5,3.79-.27.46-1.13,1.99-1.1,4.03.03,1.55.53,1.17,1.59,4.99.18.64.4,1.5,1.16,2.2.56.51,1.18.63,1.4.77.35.21,2.64,1.64,4.24,3.43,2.6,2.92,3.18,7.12,3.33,8.3.8,6.46-2.29,8.74-.46,11.54,1.59,2.43,4.23,1.19,6.65,4.23,2.11,2.64,2.41,6.55,1.25,7.33-.55.37-1.08-.21-2.83-.21-.4,0-2.22,0-3.65.86-2.26,1.36-1.68,3.77-3.5,4.67-1.35.66-2.92-.04-4.3-.66-4.48-2-6.67-6.03-7.16-6.96-1.78-3.43-1.97-6.56-2.21-11.09-.35-6.81.81-9.77-1.02-11.04-1.48-1.03-3.88-.24-5.15.64-3.03,2.11-2.99,6.59-2.97,9.37.04.44.1,1.15.14,2.02.11,2.84-.23,3.74-.12,5.96.09,1.83.14,2.75.63,3.89.8,1.86,1.74,1.96,2.75,4.07.23.48,1.45,3.04.58,3.88-.16.16-.53.39-2.45-.06-2.87-.66-3.49-1.52-5.11-1.65-1.72-.13-1.89.76-3.86,1.08-3.48.57-7.98-1.38-8.48-4.11-.28-1.48.64-3.1.75-3.27.15-.26.29-.45.43-.6.56-.64,1.04-1.06,1.11-1.12,1.96-1.58,1.59-6.75,1.59-6.75-.67-9.3-1-13.94-.64-16.87.84-6.75,4.05-11.98,4.45-12.62,1.46-2.32,2.26-2.85,3.74-5.5.52-.93,2.48-4.55,3.61-10.04.56-2.74.77-5.2-.11-18.7-.47-7.29-.71-10.94-1.14-13.91-1.1-7.71-1.66-11.56-3.29-15.15-2.05-4.49-4.9-8.16-3.7-9.9.46-.67,1.9-1.71,3.22-1.47.07.01.13.03.17.04,0,0,.01,0,.01,0,.22.05.37.1,1.31.32,2.33.55,2.93.63,5.04,1.29,1.58.49,7.45,2.6,11.44,4.7,7.73,4.07,17.43,12.84,23.96,22.22,5.13,7.37,6.72,12.83,7.36,15.51.06.25.11.46.14.6h0c.05.28.65,4.73.71,5.93Z"/>
    <path class="cls-2" d="M98.36,50.91c-.4.3-.27,1.15,2.12,7.75,2,5.52,2.26,5.9,2.43,6.4.08.23.12.41.14.5.49,2.01.52,3.72,1.36,4.29.79.53,1.43-.52,3.42-.44,1.93.07,2.74,1.11,3.44.65.76-.5.47-2.18.32-3.01-.45-2.49-1.52-4.26-2.88-6.27-3.82-5.67-5.06-6.86-6.21-7.77-1.05-.83-3.38-2.67-4.16-2.08Z"/>
    <path class="cls-3" d="M138.52,64.84c-.06.5-.13,1.01-.22,1.52-.87,5.1-2.88,9.39-5.14,12.84-.66,1.11-1.63,2.64-2.95,4.36-1.11,1.44-2.53,3.26-4.82,5.17-.47.4-1.12.92-1.98,1.48-.13.09-1.44.94-2.78,1.52-1.13.49-5.99,2.61-8.45.65-.92-.74-.89-1.55-2.13-2.22-.98-.53-2.01-.55-2.73-.49-.4.14-1.81.67-2.65,2.15-.87,1.56-.51,3.1-.37,3.69.67,2.87,3.34,4.18,3.76,4.39,2.44,1.92,3.67,3.85,4.33,5.15,2.62,5.16,2.13,12.05,2.04,13.34-.15,2.16-.46,3.4.32,4.9,1.05,2.01,2.84,2.16,4.62,3.91,1.18,1.17,2.49,3.18,2.84,6.87.2.92.61,2.17,1.51,3.42,2.32,3.25,6.03,3.9,6.91,4.03.9.15,1.8.3,2.7.44l2.71-1.2,2.61-2.12,4.28-2.7c2.78-1.28,5.56-2.55,8.34-3.83,2.06-.69,4.12-1.38,6.18-2.07.35-.57.85-1.49,1.17-2.7.6-2.27.21-4.19-.48-7.35-.24-1.13-.63-2.7-1.24-4.55-.76-.38-1.51-.77-2.27-1.15l-2.96.92-2.37,1.89-2.67,2.05-3.63,2.38c-.43.29-1.12.69-2.04.9-.57.13-1.08.16-1.48.15-.28-.32-1.51-1.78-1.43-3.94.06-1.71.9-2.87,1.21-3.27.44-.31,1.12-.71,2.03-.99.91-.28,1.71-.32,2.25-.31,1.21-.42,2.43-.85,3.64-1.27l2.35-.59,1.87-1.14.48-2.19-.69-3.1-.57-5.03-.67-1.99-3.59-2.63-1.76.53-4.42,1.88-3.28,1.08-1.13.28c-.08.02-.63.19-1.16-.14-.6-.38-.63-1.08-.63-1.13-.01-.26,0-.84.32-1.46.28-.53.66-.84.87-.99.74-.27,1.47-.54,2.21-.81l2.41-1.04,3.2-.63,3.08-1.12,1.09-1.48c.04-1.33.08-2.66.12-3.99-.1-2.1-.19-4.2-.29-6.3,0-1.47.01-2.93.02-4.4-.44-2.39-1.34-5.51-3.23-8.75-.66-1.14-1.36-2.14-2.05-3.02-.18-.12-.8-.5-1.66-.44-.84.06-1.39.5-1.56.65Z"/>
    <path class="cls-3" d="M149.05,63.24l2.17-2.99,2.07-.96,2.74.65,2.67,2.34,1.96,3.18,2.68,5.02,1.23,3.81,1.81,5.32,1.52,4.56,1.48,4.12.91,3.95,1.29.64,1.77-1.46c.32-.32.84-.75,1.59-1.03,1.67-.64,3.2-.04,3.59.13,1.81,1.23,2.77,2.53,3.33,3.51,1.61,2.85,1.02,5.31,3.18,9.45.31.6.6,1.07.79,1.38.12.01.88.09,1.52-.47.62-.54.66-1.28.66-1.4,0-1.19.01-2.39.02-3.58l.47-3.62.99-4,.78-2.53,1.6-2.15,1.75-.49c1.04.84,2.09,1.68,3.13,2.52.58.14,1.75.34,3.13-.05.87-.25,1.52-.65,1.93-.95.92-.12,1.84-.24,2.77-.35.57.24,1.3.67,1.58,1.43.48,1.3-.66,2.79-1.05,3.34-1.28,1.77-2.91,4.86-4.77,10.71-2.03,4.92-3.09,9.01-3.67,11.73-2.99,14.01-4.49,21.01-4.59,22.89-.04.66-.11,2.31-1.19,3.01-1.53.99-4.15-.53-5.37-1.32l-2.87-3.44c-1.03-1.47-2.2-3.47-3.1-5.99-.48-1.34-.79-2.6-1-3.72-.05-1.9-.11-3.79-.16-5.69.08-.32.4-1.7-.38-3.1-.55-.98-1.36-1.46-1.71-1.64-.08-.01-1.48-.2-2.38.88-.65.78-.77,1.89-.31,2.82.26,1.66.51,3.31.77,4.97.11,1.58.12,3.43-.08,5.49-.16,1.65-.43,3.13-.73,4.43.16,1.54-.53,3.03-1.79,3.85-1.46.95-3.44.81-4.84-.36-.77-1.54-1.54-3.07-2.31-4.61l-2.55-7.38-1.32-4.81-1.05-5.61-1.02-3.94-1.51-7.03c-.58-2.34-1.16-4.67-1.73-7.01-1.31-4.84-2.62-9.69-3.93-14.53l-2-7.21-1.6-5.45-.2-4.79c.45-.82.9-1.64,1.35-2.47Z"/>
    <path class="cls-2" d="M61.13,72.3c-.54,2.19.85,3.97.96,4.11,1.11,1.38,2.63,1.63,5.05,2.04,2.31.39,3.89.65,5.34-.31.15-.1,1.91-1.29,1.96-3.15.05-1.87-1.67-3.16-3.19-4.3-1.6-1.2-3.2-2.4-5.38-2.14-1.83.21-4.16,1.44-4.73,3.75Z"/>
    <path class="cls-3" d="M233,78.65c-1.9-.03-3.51,1.1-3.95,2.64-.42,1.47.37,2.74.52,2.97l2.83,5.99c.76,2.43,1.52,4.85,2.29,7.28,1.38,5.02,2.77,10.03,4.15,15.05.14,2.07.51,4.61,1.38,7.39.47,1.52,1.02,2.88,1.57,4.07,2.28,4.89,2.23,4.49,3.44,7.61,1.2,3.12,1.57,4.99,3.5,7.44.37.47.7.84.93,1.08.47.18.93.36,1.4.53l1.55-.15c.29-.2.72-.55,1.07-1.13.21-.34.33-.67.41-.92l.88-3.56c6.04-12.42,10.41-23.16,13.49-31.48,8.76-23.65,6.83-26.88,7.89-29.79.07-.19.3-.91.21-1.81,0,0-.18-1.2-1.11-2.13-1.34-1.34-4.05-.97-9.42-.19-1.43.21-3.34.53-5.78.01-.59-.12-1.06-.27-1.37-.37-.18.02-.43.08-.71.2-1.58.67-1.99,2.78-2.8,6.11-.8,3.31-.63,2.28-1.16,4.61-.95,4.16-1.35,6.88-1.49,7.9-.25,1.76-.37,2.63-.38,3.46-.02,1.36.13,2.43,0,4.45-.02.27-.11,1.39-.75,2.43-.33.54-.63.76-.95.82-.32.06-.61-.05-.77-.12-.32-.31-.75-.79-1.15-1.45-.36-.6-.58-1.17-.72-1.61-.37-1.46-.74-2.91-1.1-4.37-.11-.87-.82-5.99-3.95-9.24-1.41-1.47-3.05-2.35-3.05-2.35-1.28-.69-2.46-1.03-3.31-1.2-1.44-.29-2.68-.27-3.55-.19Z"/>
    <path class="cls-3" d="M280.09,76.59c-3.32,9.84-3.82,13.9-3.82,13.9s-.85,6.9-3.59,15.07c-3.44,10.26-14.37,31.88-14.77,33.89-.14.73.12,1.25.12,1.25.29.56.78.76.9.81.59-.04,1.19-.07,1.78-.11,1.39-.25,2.79-.5,4.18-.75,1.5-.33,3.52-.73,5.92-1.08,1.64-.24,5.32-.72,10.96-.85,4.26-.1,10.31-.01,17.79.81,1.05.19,2.11.39,3.16.58.38.07.88.12,1.46.09.63-.03,1.15-.16,1.55-.28.17-.05.54-.19.87-.54.32-.34.44-.71.49-.88-.09-1.23-.19-2.24-.27-2.94-.12-1.07-.21-1.63-.24-2.54-.04-1.05-.07-1.57.03-2.18.18-1.16.54-1.51.6-2.6.04-.62-.04-1.13-.1-1.45-.03-.33-.13-.88-.47-1.46-.44-.76-1.05-1.17-1.35-1.34-.47-.31-.89-.49-1.2-.61-.53-.2-.99-.37-1.57-.28-.36.06-.64.2-.82.3-.58.21-1.54.54-2.75.84-2.38.6-3.79.62-6.55,1.04-1,.15-2.52.4-4.39.82-.76.07-1.6.11-2.5.08-.5-.01-.97-.04-1.42-.09-.19-.02-.59-.08-1-.36-.52-.36-.72-.86-.78-1.04-.08-.42-.14-.87-.16-1.37-.07-2.16.7-3.89,1.27-4.9.11-.28.28-.63.57-1,.37-.49.78-.8,1.07-.99.18-.13.42-.29.72-.46.45-.25.84-.42,1.02-.48.69-.26,1.3-.22,2.46-.15,0,0,.4.02,2.21.24,1.33-.15,2.65-.31,3.98-.46.64-.11,1.3-.21,1.99-.29.84-.1,1.64-.18,2.41-.24.34-.11.75-.26,1.18-.49.31-.17.58-.34.81-.51.22-.3.53-.8.7-1.47.12-.44.14-.84.14-1.14l-1.35-3.78c-.64-1.53-1.3-3.56-1.56-6-.11-1.04-.14-2.01-.11-2.88-.05-.19-.18-.64-.59-1.01-.22-.2-.45-.31-.61-.37-.14-.08-.41-.2-.77-.22-.44-.02-.77.15-.91.22-.24.24-.64.57-1.2.83-.43.19-.82.28-1.11.32-.2.08-.52.17-.91.18-.47.01-.84-.1-1.06-.18-.08,0-.42-.04-.69-.33-.22-.24-.25-.52-.26-.61-.16-.34-.32-.77-.44-1.27-.2-.86-.19-1.6-.13-2.13-.05-.42-.07-.98.02-1.63.1-.69.29-1.26.47-1.66,0-.09.05-.57.46-.91.27-.23.57-.27.69-.28.49-.07,1.12-.11,1.84-.05.75.06,1.38.22,1.87.37,1.05.33,1.89,0,2.09-.03.61-.11,1.1-.28,1.44-.43.17-.16.41-.42.62-.79.1-.17.44-.56.39-1.15-.09-1.04-.19-2.08-.28-3.12-.12-1.32-.25-2.64-.37-3.95-.07-1.49-.13-2.98-.2-4.47-.12-.41-.35-1.03-.82-1.67-.35-.47-.72-.8-1.01-1.03-.21-.17-.58-.42-1.1-.56-.33-.09-.63-.1-.84-.09-.19.02-.48.05-.83.11-1.47.28-1.97.84-3.1,1.32-1.4.61-2.73.67-4.98.77-.46.02-.83.03-1.09.03-.81-.27-1.5-.4-2-.46-1.13-.15-1.6-.02-1.76.03-.49.15-.85.39-1.07.57-.21.17-.46.4-.69.71-.38.5-.56.99-.64,1.21Z"/>
    <path class="cls-3" d="M197.74,143.33h4.62s3.05.32,3.05.32l3.64.35,3.21-.29c.19-.11.49-.31.76-.67.33-.45.43-.89.46-1.12-.45-1.24-.9-2.48-1.34-3.72-.19-.53-.48-1.6-.12-2.79.22-.73.61-1.23.9-1.6.6-.78,1.26-1.27,1.71-1.55.36-.16.86-.37,1.48-.57.13-.04,1.32-.41,2.26-.51,1.75-.17,3.35.55,4.23,1.03l1.65,1.53c1.18,2.81,1.06,4.68.7,5.9-.18.6-.61,1.67-.32,2.96.18.82.59,1.44.92,1.85l1.43.96c.26.04.79.09,1.38-.15.33-.13.58-.32.74-.46.81-.8,1.58-1.31,2.11-1.7.39-.29,2.72-1.5,2.72-1.5,0,0,1.91-.17,2.16-.19.25-.02,2.55-.56,2.55-.56.5-.23,1.03-.47,1.61-.69.63-.24,1.23-.45,1.8-.62.16-.14.4-.39.58-.75.26-.53.26-1.01.25-1.25.12-.28.35-.9.25-1.7-.08-.69-.37-1.19-.53-1.44-.14-.59-.36-1.29-.7-2.05-.37-.82-.79-1.49-1.17-2.01-.76-1.42-1.52-2.85-2.28-4.27-.57-1.4-1.15-2.81-1.72-4.21-.64-1.71-1.27-3.74-1.72-6.06-.28-1.44-.45-2.79-.56-4.03-1.28-5.09-2.57-10.18-3.85-15.26-.97-2.71-1.94-5.42-2.91-8.13-.77-1.61-1.54-3.22-2.31-4.83-1.2-1.65-2.4-3.29-3.6-4.94-1.24-1.55-2.48-3.1-3.72-4.65-.23-.12-.65-.31-1.21-.34-.61-.04-1.08.13-1.32.23-.35.48-.7.96-1.05,1.44l-1.51.89c-.18-.16-.77-.62-1.59-.61-.33,0-.6.08-.8.16-.19.35-.37.71-.55,1.08-1.7,3.7-1.8,7.42-1.45,10.34.35.4.55.79.66,1.12.83,2.34-1.33,4.73-1.5,4.92-.42,1.12-1.06,2.91-1.73,5.15-1.24,4.17-1.4,5.98-2.51,10-.91,3.3-1.19,3.47-2.35,7.18-.82,2.62-1.91,6.47-2.88,11.33-.61,2.28-1.22,4.57-1.82,6.85-.31,2.36-.63,4.71-.94,7.07-.03.21-.05.51.01.87.06.34.17.97.7,1.38.63.49,1.4.34,1.53.32Z"/>
    <path class="cls-1" d="M219.09,104.59c-.72,0-1.63.02-2.24.59-.59.56-.38,1.16-.93,2.88-.23.72-.47,1.28-.63,1.62-.18.36-.42.95-.39,1.69.02.41.05,1.2.56,1.54.17.11.4.18.74.27.32.09.56.13.62.13.29.04.56.04.79.03.23,0,.56-.02.95-.07.4-.05.99-.12,1.67-.35.68-.23.78-.39,1.24-.42.39-.03.71.06.93.14.19-.01.39-.02.58-.03.22-.17.45-.35.67-.52.03-.09.08-.23.13-.4.25-.96.13-1.78.08-2.11-.07-.42-.17-.78-.24-1-.07-.24-.14-.44-.2-.59-.32-.13-.83-.38-1.28-.86-.85-.91-.68-1.77-1.49-2.28-.44-.27-.88-.27-1.57-.26Z"/>
  </g>
</svg>